<svg xmlns="http://www.w3.org/2000/svg" viewBox="0 0 794 1123" role="img" aria-label="組合売買契約書">
  <rect width="794" height="1123" fill="#ffffff" />
  <rect x="32" y="32" width="730" height="1059" fill="none" stroke="#a7a7a7" stroke-width="2" />

  <text x="397" y="90" text-anchor="middle" font-size="28" font-family="sans-serif" fill="#111111">
    組合売買契約書
  </text>
  <text x="397" y="118" text-anchor="middle" font-size="12" font-family="sans-serif" fill="#555555">
    （ダミー表示）
  </text>

  <text x="60" y="170" font-size="12" font-family="sans-serif" fill="#333333">作成日：</text>
  <text x="60" y="200" font-size="12" font-family="sans-serif" fill="#333333">担当者：</text>

  <rect x="60" y="240" width="674" height="180" fill="none" stroke="#b0b0b0" stroke-width="1" />
  <line x1="60" y1="270" x2="734" y2="270" stroke="#b0b0b0" stroke-width="1" />
  <line x1="60" y1="300" x2="734" y2="300" stroke="#b0b0b0" stroke-width="1" />
  <line x1="60" y1="330" x2="734" y2="330" stroke="#b0b0b0" stroke-width="1" />
  <line x1="60" y1="360" x2="734" y2="360" stroke="#b0b0b0" stroke-width="1" />
  <line x1="60" y1="390" x2="734" y2="390" stroke="#b0b0b0" stroke-width="1" />

  <text x="70" y="262" font-size="11" font-family="sans-serif" fill="#444444">機種名</text>
  <text x="70" y="292" font-size="11" font-family="sans-serif" fill="#444444">数量</text>
  <text x="70" y="322" font-size="11" font-family="sans-serif" fill="#444444">設置店</text>
  <text x="70" y="352" font-size="11" font-family="sans-serif" fill="#444444">取引条件</text>
  <text x="70" y="382" font-size="11" font-family="sans-serif" fill="#444444">備考</text>

  <rect x="60" y="450" width="674" height="320" fill="none" stroke="#b0b0b0" stroke-width="1" />
  <line x1="60" y1="490" x2="734" y2="490" stroke="#b0b0b0" stroke-width="1" />
  <line x1="60" y1="530" x2="734" y2="530" stroke="#b0b0b0" stroke-width="1" />
  <line x1="60" y1="570" x2="734" y2="570" stroke="#b0b0b0" stroke-width="1" />
  <line x1="60" y1="610" x2="734" y2="610" stroke="#b0b0b0" stroke-width="1" />
  <line x1="60" y1="650" x2="734" y2="650" stroke="#b0b0b0" stroke-width="1" />
  <line x1="60" y1="690" x2="734" y2="690" stroke="#b0b0b0" stroke-width="1" />
  <line x1="60" y1="730" x2="734" y2="730" stroke="#b0b0b0" stroke-width="1" />

  <text x="70" y="475" font-size="11" font-family="sans-serif" fill="#444444">契約概要</text>
  <text x="70" y="515" font-size="11" font-family="sans-serif" fill="#444444">支払条件</text>
  <text x="70" y="555" font-size="11" font-family="sans-serif" fill="#444444">納品予定</text>
  <text x="70" y="595" font-size="11" font-family="sans-serif" fill="#444444">引渡し場所</text>
  <text x="70" y="635" font-size="11" font-family="sans-serif" fill="#444444">保証</text>
  <text x="70" y="675" font-size="11" font-family="sans-serif" fill="#444444">その他</text>

  <rect x="60" y="810" width="674" height="220" fill="none" stroke="#b0b0b0" stroke-width="1" />
  <line x1="60" y1="860" x2="734" y2="860" stroke="#b0b0b0" stroke-width="1" />
  <line x1="60" y1="910" x2="734" y2="910" stroke="#b0b0b0" stroke-width="1" />

  <text x="70" y="842" font-size="11" font-family="sans-serif" fill="#444444">売主署名</text>
  <text x="70" y="892" font-size="11" font-family="sans-serif" fill="#444444">買主署名</text>
  <text x="70" y="942" font-size="11" font-family="sans-serif" fill="#444444">組合確認</text>
</svg>
