<svg
  xmlns="http://www.w3.org/2000/svg"
  width="297mm"
  height="210mm"
  viewBox="0 0 1122 794"
  role="img"
  aria-label="組合売買契約書"
>
  <rect width="1122" height="794" fill="#ffffff" />
  <rect x="32" y="32" width="1058" height="730" fill="none" stroke="#a7a7a7" stroke-width="2" />

  <text x="561" y="90" text-anchor="middle" font-size="28" font-family="sans-serif" fill="#111111">
    組合売買契約書
  </text>
  <text x="561" y="118" text-anchor="middle" font-size="12" font-family="sans-serif" fill="#555555">
    （ダミー表示）
  </text>

  <text x="70" y="170" font-size="12" font-family="sans-serif" fill="#333333">作成日：</text>
  <text x="70" y="200" font-size="12" font-family="sans-serif" fill="#333333">担当者：</text>

  <rect x="70" y="240" width="980" height="140" fill="none" stroke="#b0b0b0" stroke-width="1" />
  <line x1="70" y1="270" x2="1050" y2="270" stroke="#b0b0b0" stroke-width="1" />
  <line x1="70" y1="300" x2="1050" y2="300" stroke="#b0b0b0" stroke-width="1" />
  <line x1="70" y1="330" x2="1050" y2="330" stroke="#b0b0b0" stroke-width="1" />
  <line x1="70" y1="360" x2="1050" y2="360" stroke="#b0b0b0" stroke-width="1" />

  <text x="80" y="262" font-size="11" font-family="sans-serif" fill="#444444">機種名</text>
  <text x="80" y="292" font-size="11" font-family="sans-serif" fill="#444444">数量</text>
  <text x="80" y="322" font-size="11" font-family="sans-serif" fill="#444444">設置店</text>
  <text x="80" y="352" font-size="11" font-family="sans-serif" fill="#444444">取引条件</text>

  <rect x="70" y="420" width="980" height="230" fill="none" stroke="#b0b0b0" stroke-width="1" />
  <line x1="70" y1="455" x2="1050" y2="455" stroke="#b0b0b0" stroke-width="1" />
  <line x1="70" y1="490" x2="1050" y2="490" stroke="#b0b0b0" stroke-width="1" />
  <line x1="70" y1="525" x2="1050" y2="525" stroke="#b0b0b0" stroke-width="1" />
  <line x1="70" y1="560" x2="1050" y2="560" stroke="#b0b0b0" stroke-width="1" />
  <line x1="70" y1="595" x2="1050" y2="595" stroke="#b0b0b0" stroke-width="1" />

  <text x="80" y="445" font-size="11" font-family="sans-serif" fill="#444444">契約概要</text>
  <text x="80" y="480" font-size="11" font-family="sans-serif" fill="#444444">支払条件</text>
  <text x="80" y="515" font-size="11" font-family="sans-serif" fill="#444444">納品予定</text>
  <text x="80" y="550" font-size="11" font-family="sans-serif" fill="#444444">引渡し場所</text>
  <text x="80" y="585" font-size="11" font-family="sans-serif" fill="#444444">保証</text>

  <rect x="70" y="680" width="980" height="60" fill="none" stroke="#b0b0b0" stroke-width="1" />
  <line x1="70" y1="710" x2="1050" y2="710" stroke="#b0b0b0" stroke-width="1" />

  <text x="80" y="702" font-size="11" font-family="sans-serif" fill="#444444">売主署名</text>
  <text x="420" y="702" font-size="11" font-family="sans-serif" fill="#444444">買主署名</text>
  <text x="760" y="702" font-size="11" font-family="sans-serif" fill="#444444">組合確認</text>
</svg>
